<?xml version="1.0" encoding="UTF-8"?>
<svg id="svg2" xmlns="http://www.w3.org/2000/svg" version="1.1" xmlns:cc="http://creativecommons.org/ns#" xmlns:dc="http://purl.org/dc/elements/1.1/" xmlns:rdf="http://www.w3.org/1999/02/22-rdf-syntax-ns#" xmlns:svg="http://www.w3.org/2000/svg" viewBox="0 0 437.3 210.4">
  <!-- Generator: Adobe Illustrator 30.3.0, SVG Export Plug-In . SVG Version: 2.1.3 Build 182)  -->
  <g id="g12">
    <path id="path14" d="M389.8,28.7c0,1.2,0,2.2-.1,2.6-.3,2.8,0,4.1-8,4.1s-7.7-1.3-8-4.1c-.1-.9-.2-5.8-.2-8.1,0-2.3,0-7.2.2-8.1.3-2.8,0-4.1,8-4.1s7.7,1.3,8,4.1c0,.4,0,1.5.1,2.8h10.9c0-2.5-.2-4.5-.3-5.6-.6-5.5,1.6-10.8-18.7-10.8s-18,5.3-18.7,10.8c-.2,1.8-.4,6.4-.4,11,0,4.6.2,9.2.4,11,.6,5.5-1.6,10.8,18.7,10.8s18-5.3,18.7-10.8c.1-1.1.2-3.1.3-5.4h-10.9"/>
    <path id="path16" d="M260.4,2.4l-10.6,31.1-10.6-31.1h-15.9c0,0,0,41.7,0,41.7h10.6V13l10.6,31.1h10.6l10.6-31.1v31.1h10.6V2.3h-15.9"/>
    <path id="path18" d="M403.1,2.3h30.6v10.6h-10v31.1h-10.6V13h-10V2.3"/>
    <path id="path20" d="M321,44.1l12.2-41.8h15.9l12.2,41.8h-10.6l-2.5-8.6h-14l2-6.8h10l-4.9-17-9.6,32.4h-10.6"/>
    <path id="path22" d="M197.6,10.9c8,0,7.7,1.3,8,4.1.1.9.2,5.8.2,8.1,0,2.3,0,7.2-.2,8.1-.3,2.8,0,4.1-8,4.1s-7.7-1.3-8-4.1c-.1-.9-.2-5.8-.2-8.1,0-2.3,0-7.2.2-8.1.3-2.8,0-4.1,8-4.1V1.3c-20.2,0-18,5.3-18.7,10.8-.2,1.8-.4,6.4-.4,11,0,4.6.2,9.2.4,11,.6,5.5-1.6,10.8,18.7,10.8s18-5.3,18.7-10.8c.2-1.8.4-6.4.4-11,0-4.6-.2-9.2-.4-11-.6-5.5,1.6-10.8-18.7-10.8v9.6"/>
    <path id="path24" d="M161.6,28.7c0,1.2,0,2.2-.1,2.6-.3,2.8,0,4.1-8,4.1s-7.7-1.3-8-4.1c-.1-.9-.2-5.8-.2-8.1,0-2.3,0-7.2.2-8.1.3-2.8,0-4.1,8-4.1s7.7,1.3,8,4.1c0,.4,0,1.5.1,2.8h10.9c0-2.5-.2-4.5-.3-5.6-.6-5.5,1.6-10.8-18.7-10.8s-18,5.3-18.7,10.8c-.2,1.8-.4,6.4-.4,11,0,4.6.2,9.2.4,11,.6,5.5-1.6,10.8,18.7,10.8s18-5.3,18.7-10.8c.1-1.1.2-3.1.3-5.4h-10.9"/>
    <path id="path26" d="M302.3,34.5h-6.5v-9.5h6.5c8,0,7.7-1.3,8-4.1.1-.9,0-.2,0-2.5,0-2.3,0-1.5,0-2.4-.3-2.8,0-4.1-8-4.1h-6.5s0,32.1,0,32.1h-10.7V2.3h17.1c20.2,0,18,5.3,18.8,10.8,0,.7,0,3.7,0,5.3s0,4.3,0,5.3c-.5,5.5,1.5,10.8-18.8,10.8"/>
    <path id="path54" d="M95.2,201.3H28.6c-9.6,0-17.5-7.9-17.5-17.5v-101.4c0-9.6,7.8-17.5,17.5-17.5h41.7c5,0,9.1-4.1,9.1-9.1V15.2c.1-2.1,1.8-3.8,3.9-3.8h24.5c2.1,0,3.8,1.7,3.8,3.8l.3,182.3c0,2.1-1.7,3.8-3.8,3.8h-12.8s-.3,9-.3,9h16.7c5,0,9.1-4.1,9.1-9.1V11.3c0-5-4.1-9.1-9.1-9.1h-32.1c-5,0-9.1,4.1-9.1,9.1v40.7c0,2.1-1.7,3.8-3.8,3.8H28.6c-14.7,0-26.6,11.8-26.6,26.5v101.4c0,14.7,11.9,26.6,26.6,26.6h66.3s.3-9.1.3-9.1"/>
    <path id="path56" d="M70.4,164v-65.6c0-5.5-4.5-10-10-10s-10,4.5-10,10v70.8c0,5.5,4.5,10,10,10s10-4.5,10-10v-5.2l9.1.3v4.9c0,10.5-8.5,19-19,19s-19-8.5-19-19v-70.8c0-10.5,8.5-19,19-19s19,8.5,19,19v65.9l-9.1-.3"/>
    <path id="path58" d="M158.6,201.3h-12.5c-2.1,0-3.8-1.7-3.8-3.8l.2-128.7c0-2.1,1.7-3.8,3.8-3.8h24.5c2.1,0,3.8,1.7,3.8,3.8l.3,128.7c0,2.1-1.7,3.8-3.8,3.8h-12.4v9h16c5,0,9.1-4,9.1-9.1V64.9c0-5-4.1-9.1-9.1-9.1h-32.1c-5,0-9.1,4.1-9.1,9.1v136.4c0,5,4,9.1,9,9.1h16.1s0-9,0-9"/>
    <path id="path60" d="M273.8,90.3h-26.9c-8.3,0-15,6.7-15,14.9s6.7,15,15,15h36.8c9.6,0,17.5,7.9,17.5,17.6v45.8c-.1,9.6-7.9,17.5-17.6,17.5h-73.1c-2.1.1-3.8-1.6-3.8-3.7v-17.7c0-2.1,1.7-3.8,3.8-3.8l49.8-.2c8.3,0,15-6.7,15-15s-6.7-15-15-15h-36c-9.6-.1-17.5-8-17.5-17.6v-45.8c0-9.6,7.8-17.5,17.5-17.5l67.7-.3c2.1,0,3.8,1.7,3.8,3.8v18.1c0,2.1-1.7,3.8-3.8,3.8h-18.2s-.3,8.9-.3,8.9h22.3c5,0,9.1-4,9.1-9v-25.4c0-5-4-9.1-9-9.1h-71.5c-14.7,0-26.6,11.9-26.6,26.6v45.8c0,14.7,11.9,26.6,26.6,26.6h36c3.3,0,6,2.6,6,6s-2.7,6-6,6h-53.7c-5,0-9.1,4-9.1,9.1v25.4c0,5,4.1,9.1,9.1,9.1h76.9c14.7,0,26.6-11.9,26.6-26.6v-45.8c.1-14.7-11.8-26.6-26.5-26.6h-36.8c-3.3.1-6-2.6-6-5.9s2.7-6,6-6h26.6s.3-8.9.3-8.9"/>
    <path id="path62" d="M409.1,115.4h11.5c2.1,0,3.8-1.7,3.8-3.8v-29.3c0-9.6-7.9-17.5-17.5-17.5h-57.7c-9.6,0-17.5,7.8-17.5,17.5v101.4c0,9.6,7.8,17.5,17.5,17.5h57.7c9.6,0,17.5-7.8,17.5-17.5v-27.9c0-2.1-1.7-3.8-3.8-3.8h-21.8c-2.1,0-3.8,1.7-3.8,3.8v13.3c.1,10.5-6.5,19-17,19s-17.1-8.5-17.1-19v-70.8c0-10.5,6.6-19,17.1-19s17.1,8.5,17.1,19v13.3c-.1,2.1,1.6,3.8,3.7,3.8h10.2l-.3,9.1h-13.7c-5,0-9.1-4.1-9.1-9.1v-17.2c.1-5.5-2.4-10-7.9-10s-8.1,4.5-8.1,10v70.8c0,5.5,2.6,10,8.1,10s8.1-4.5,8.1-10v-17.2c-.1-5,4-9.1,9-9.1h29.4c5,0,9.1,4.1,9.1,9.1v31.8c0,14.7-11.9,26.6-26.6,26.6h-57.7c-14.7,0-26.6-11.9-26.6-26.6v-101.4c0-14.7,11.9-26.6,26.6-26.6h57.7c14.7,0,26.6,11.9,26.6,26.6v33.2c0,5-4,9.1-9.1,9.1h-15.7l.3-9.1"/>
  </g>
</svg>