<?xml version="1.0" encoding="UTF-8"?>
<svg id="Layer_1" xmlns="http://www.w3.org/2000/svg" version="1.1" viewBox="0 0 93.1 130.3">
  <!-- Generator: Adobe Illustrator 30.3.0, SVG Export Plug-In . SVG Version: 2.1.3 Build 182)  -->
  <defs>
    <style>
      .st0 {
        fill: #fff;
      }
    </style>
  </defs>
  <polygon class="st0" points="91.4 .9 1 .9 1 129.4 92.1 129.4 92.1 .9 91.4 .9"/>
  <rect x="3.4" y="3.3" width="86.4" height="123.7"/>
  <rect class="st0" x="7.9" y="23.7" width="77.2" height="76.8"/>
  <path d="M92.4,0H0v130.4h93.1V0h-.7ZM91.8,129.1H1.3V1.2h90.4v127.8Z"/>
  <path class="st0" d="M11.5,108.1c0,.1,0,.3,0,.4,0,1.2-.5,2.2-2,2.2-2.2,0-2.3-1.3-2.3-3.2v-1c0-1.8.2-3.1,2.3-3.1,1.2,0,1.9.6,1.9,1.8,0,.2,0,.4,0,.5h-1.3c0-.4,0-1.3-.7-1.3-1.1,0-1,1.2-1,1.7v1.9c0,.6,0,1.5,1,1.5s.6-1.1.7-1.6c0,0,1.3,0,1.3,0Z"/>
  <path class="st0" d="M12.5,106.5c0-1.8.2-3.1,2.3-3.1s2.3,1.3,2.3,3.1v1c0,1.8-.1,3.2-2.3,3.2s-2.3-1.3-2.3-3.2v-1ZM13.9,108.1c0,.6,0,1.5,1,1.5s1-.9,1-1.6v-1.7c0-.6,0-1.8-1-1.8s-1,1.2-1,1.7v1.9Z"/>
  <path class="st0" d="M21.6,103.7h1.3v6.9h-1.4l-1-2.4c-.3-.8-.6-1.6-.9-2.7h0c0,.6.1,1.3.1,2,0,.7,0,1.4,0,1.9v1.3h-1.3v-6.9h1.4l1,2.5c.3.8.6,1.6,1,2.7h0c0-.6,0-1.3-.1-1.9,0-.7,0-1.3,0-1.9v-1.3h0Z"/>
  <polygon class="st0" points="23.7 103.7 28.2 103.7 28.2 104.7 26.6 104.7 26.6 110.5 25.3 110.5 25.3 104.7 23.7 104.7 23.7 103.7"/>
  <polygon class="st0" points="28.9 110.5 28.9 103.7 32.7 103.7 32.7 104.7 30.3 104.7 30.3 106.4 32.5 106.4 32.5 107.4 30.3 107.4 30.3 109.5 32.7 109.5 32.7 110.5 28.9 110.5"/>
  <path class="st0" d="M36.9,103.7h1.3v6.9h-1.4l-1-2.4c-.4-.8-.6-1.6-1-2.7h0c0,.6.1,1.3.1,2,0,.7,0,1.4,0,1.9v1.3h-1.3v-6.9h1.4l1,2.5c.3.8.6,1.6,1,2.7h0c0-.6,0-1.3-.1-1.9,0-.7,0-1.3,0-1.9v-1.3h0Z"/>
  <polygon class="st0" points="39.1 103.7 43.5 103.7 43.5 104.7 42 104.7 42 110.5 40.6 110.5 40.6 104.7 39.1 104.7 39.1 103.7"/>
  <path class="st0" d="M48,107.6v3h-1.3v-6.9h2.5c1.2,0,2,.4,2,1.6s-.2,1.5-1.1,1.7h0c.8.1,1,.6,1,1.3s0,2,.3,2.2h0c0,.1-1.5.1-1.5.1-.2-.4-.1-1.3-.1-1.7,0-.4,0-1-.5-1.1-.4-.1-.7,0-1.1,0h-.2ZM48,106.5h1c.4,0,.8-.3.8-1s-.3-.9-.8-.9h-1v1.9Z"/>
  <path class="st0" d="M52,110.5l1.7-6.9h1.8l1.6,6.9h-1.4l-.4-1.7h-1.6l-.4,1.7h-1.4ZM53.9,107.8h1.1l-.4-2c0-.3,0-.6-.1-.9,0-.2,0-.3,0-.5h0c0,.1,0,.3,0,.5,0,.3,0,.6-.1.9l-.4,2Z"/>
  <polygon class="st0" points="57.3 103.7 61.8 103.7 61.8 104.7 60.2 104.7 60.2 110.5 58.9 110.5 58.9 104.7 57.3 104.7 57.3 103.7"/>
  <polygon class="st0" points="62.6 110.5 62.6 103.7 66.3 103.7 66.3 104.7 63.9 104.7 63.9 106.4 66.1 106.4 66.1 107.4 63.9 107.4 63.9 109.5 66.3 109.5 66.3 110.5 62.6 110.5"/>
  <path class="st0" d="M67.4,110.5v-6.9h2.8c.3,0,1,.1,1.4.8.3.5.4,1.2.4,2.4s0,2.9-1.1,3.5c-.3.2-.7.2-1,.2,0,0-2.5,0-2.5,0ZM69.3,109.5c1.2,0,1.3-.6,1.3-2.6s-.2-2.3-1-2.3h-.9v4.9h.6Z"/>
  <path class="st0" d="M75.5,110.5v-6.9h2.1c.6,0,1.1,0,1.5.5.3.4.4.8.4,1.2s-.1,1.2-.9,1.4h0c.7.1,1,.7,1,1.6s0,.6,0,.8c-.3.9-.8,1.2-1.7,1.2h-2.4ZM77.1,109.5c.3,0,.6,0,.8,0,.4-.2.4-.6.4-1,0-.7-.1-1.1-1-1.1h-.5v2.1h.3ZM77.1,106.4c.3,0,.7,0,1-.2.1-.2.1-.4.1-.7,0-.5-.1-.8-.7-.8h-.6v1.8h.2Z"/>
  <path class="st0" d="M82.5,105.4c.1.3.3.7.3,1.1h0c.1-.5.3-.9.4-1.3l.6-1.6h1.5l-1.9,3.9v2.9h-1.3v-2.9l-1.9-3.9h1.5l.8,1.8Z"/>
  <polygon class="st0" points="7.4 122.7 7.4 112.5 21.8 112.5 21.8 114.9 13.2 114.9 13.2 116.4 20.5 116.4 20.5 118.7 13.2 118.7 13.2 120.3 22.1 120.3 22.1 122.7 7.4 122.7"/>
  <path class="st0" d="M36.6,115.5c0-.3-.4-.6-.8-.7-.4-.1-.9-.2-1.5-.2-1.3,0-1.8.2-1.8.6,0,1.5,10.2.6,10.2,4.3s-3.4,3.5-8.3,3.5-7.7-1.6-7.8-3.4h5.5c.1.4.5.6,1,.8.5.2,1.1.3,1.6.3,1.4,0,2.4-.3,2.4-.7,0-1.5-10.2-.5-10.2-4.4s3.2-3.2,7.7-3.2,7.1,1.4,7.6,3.2c0,0-5.5,0-5.5,0Z"/>
  <path class="st0" d="M53.1,119.2v3.5h-5.8v-10.1h8.3c5.9,0,7.8.9,7.8,2.9s-.9,2.1-3,2.5c1.9.4,3,.6,3,2.7s0,1.8.6,1.8v.3h-5.9c-.1-.2-.3-.9-.3-1.8,0-1.3-.4-1.8-3.1-1.8h-1.8ZM53.1,116.9h2.3c1.8,0,2.8-.3,2.8-1s-1-1.1-2.3-1.1h-2.7v2Z"/>
  <path class="st0" d="M69.2,122.7v-10.1h8.4c4,0,7.1.5,7.1,2.6s-1.2,1.8-2.3,2.2c1.9.3,2.9,1.2,2.9,2.3,0,2.3-3,3.1-7.6,3.1h-8.6ZM75,118.5v1.9h2.5c1.4,0,2.5-.2,2.5-.9s-1.3-.9-3.2-.9h-1.8ZM75,114.9v1.7h2.4c1.2,0,2-.3,2-.9s-1.1-.8-2.4-.8h-2Z"/>
  <polygon class="st0" points="6.1 8 11.1 8 11.1 9.4 8 9.4 8 13.4 10.9 13.4 10.9 14.9 8 14.9 8 19.2 11.1 19.2 11.1 20.7 6.1 20.7 6.1 8"/>
  <polygon class="st0" points="11.4 8 13.2 8 15.1 18.1 15.1 18.1 17 8 18.9 8 16.2 20.7 14.1 20.7 11.4 8"/>
  <polygon class="st0" points="20.2 8 25.2 8 25.2 9.4 22.1 9.4 22.1 13.4 25 13.4 25 14.9 22.1 14.9 22.1 19.2 25.2 19.2 25.2 20.7 20.2 20.7 20.2 8"/>
  <path class="st0" d="M26,8h2.8c2.7,0,3,.7,3,3.5s-.2,2.5-1.7,2.9h0c1.2.2,1.7.8,1.7,2v2.8c0,.5,0,1.1.1,1.6h-1.7c-.2-.3-.2-.6-.2-1.1v-2.9c0-1.2-.2-1.5-1.4-1.5h-.6v5.5h-1.8V8h0ZM27.8,13.7h.5c1.4,0,1.7-.3,1.7-2.2s-.1-2.1-1.3-2.1h-.9v4.2h0Z"/>
  <polygon class="st0" points="32 8 33.8 8 35.4 13.3 35.5 13.3 37.3 8 38.9 8 36.4 15.5 36.4 20.7 34.5 20.7 34.5 15.5 32 8"/>
  <path class="st0" d="M39.4,11.2c0-1.8.6-3.3,3.1-3.3s3.1,1.2,3.1,3.2v6.4c0,1.8-.6,3.4-3.1,3.4s-3.1-1.2-3.1-3.2v-6.4ZM41.2,17.7c0,1.1.5,1.7,1.3,1.7s1.3-.6,1.3-1.7v-6.7c0-1.2-.4-1.8-1.3-1.8s-1.3.6-1.3,1.8v6.7Z"/>
  <polygon class="st0" points="46.9 8 49.4 8 51.6 18.5 51.6 18.5 51.6 8 53.4 8 53.4 20.7 50.7 20.7 48.6 9.8 48.5 9.8 48.5 20.7 46.9 20.7 46.9 8"/>
  <polygon class="st0" points="54.7 8 59.7 8 59.7 9.4 56.6 9.4 56.6 13.4 59.5 13.4 59.5 14.9 56.6 14.9 56.6 19.2 59.7 19.2 59.7 20.7 54.7 20.7 54.7 8"/>
  <path class="st0" d="M66.6,10.4h0c-.4.5-.7.8-1.4,1.3v-1.7c.4-.3,1.4-1.5,1.7-2.1h1.5v12.7h-1.7v-10.3h0Z"/>
  <path class="st0" d="M70.9,11c0-2.3.6-3.1,2.7-3.1s2.7.8,2.7,3.1v6.7c0,2.3-.6,3.1-2.7,3.1s-2.7-.9-2.7-3.1v-6.7ZM72.6,17.9c0,.8,0,1.6,1,1.6s1-.8,1-1.6v-7.2c0-.8,0-1.6-1-1.6s-1,.8-1,1.6v7.2Z"/>
  <polygon class="st0" points="81.6 17 77.7 17 77.7 15.5 81.6 15.5 81.6 11.8 83.1 11.8 83.1 15.5 87 15.5 87 17 83.1 17 83.1 20.7 81.6 20.7 81.6 17"/>
  <path d="M14.9,78.2c2.4-.7,4.8-1.7,6.2-2.9v16.3h4.7v-20.4h-4.5c-1.7,1.4-3.5,2.3-6.3,3.1v3.9M13,38.8l49.5-14.7,5,15.6-24.8,7.3,2,6.4,22.9-6.8,5,15.6-22.9,6.8,2.1,6.7,25.6-7.6,5,15.6-50.3,14.9L13,38.8M47.3,81.8c0-6.8-3.6-10.8-9.7-10.8s-10.2,5.5-10.2,10.8,3.2,10.8,10,10.8c6.7,0,10-4.4,10-10.8M52.9,82.6h-3.5v1.9h3.5v3.4h2v-3.4h3.5v-1.9h-3.5v-3.4h-2v3.4Z"/>
  <path d="M31.7,81.6c0-6.8,2.8-8.4,5.9-8.4,3.5,0,5.5,2.6,5.5,8.6,0,3.7-1,8.3-5.5,8.3-4.4,0-5.9-3.5-5.8-8.5"/>
  <path d="M13.5,26.1h-1.3v3.9h-.6v-3.9h-1.3v-.4h3.2v.4ZM16.5,28.8h0l1.2-3.2h1v4.3h-.6v-3.8h0l-1.5,3.8h-.3l-1.5-3.8h0v3.8h-.6v-4.3h1l1.2,3.2Z"/>
</svg>