<?xml version="1.0" encoding="UTF-8"?>
<svg id="Layer_1" xmlns="http://www.w3.org/2000/svg" version="1.1" viewBox="0 0 93.1 130.3">
  <!-- Generator: Adobe Illustrator 30.3.0, SVG Export Plug-In . SVG Version: 2.1.3 Build 182)  -->
  <defs>
    <style>
      .st0 {
        fill: #fff;
      }
    </style>
  </defs>
  <polygon class="st0" points="91.4 .9 1 .9 1 129.4 92.1 129.4 92.1 .9 91.4 .9"/>
  <rect x="3.4" y="3.3" width="86.4" height="123.7"/>
  <rect class="st0" x="7.9" y="23.7" width="77.2" height="76.7"/>
  <path d="M92.4,0H0v130.3h93.1V0h-.7ZM91.7,129.1H1.3V1.3h90.4s0,127.8,0,127.8Z"/>
  <path class="st0" d="M11.9,108.1c0,.1,0,.3,0,.4,0,1.3-.5,2.2-2,2.2-2.2,0-2.3-1.3-2.3-3.2v-1c0-1.8.2-3,2.3-3,1.2,0,1.9.6,1.9,1.8,0,.2,0,.4,0,.5h-1.3c0-.4,0-1.3-.7-1.3-1.1,0-1,1.2-1,1.7v1.9c0,.6,0,1.5,1,1.5s.6-1.1.7-1.6h1.3Z"/>
  <path class="st0" d="M12.9,106.6c0-1.8.2-3,2.3-3s2.3,1.3,2.3,3v1c0,1.8-.1,3.2-2.3,3.2s-2.3-1.3-2.3-3.2v-1ZM14.2,108.2c0,.6,0,1.5,1,1.5s1-.9,1-1.6v-1.8c0-.5,0-1.8-1-1.8s-1,1.2-1,1.7v1.9Z"/>
  <path class="st0" d="M21.9,103.7h1.3v6.9h-1.4l-1-2.4c-.3-.8-.6-1.6-1-2.7h0c0,.6.1,1.3.2,2,0,.7,0,1.4,0,1.9v1.3h-1.3v-6.9h1.4l1,2.5c.3.8.6,1.6,1,2.7h0c0-.6,0-1.3-.1-1.9,0-.7,0-1.3,0-1.9v-1.3h0Z"/>
  <polygon class="st0" points="24.1 103.7 28.5 103.7 28.5 104.7 27 104.7 27 110.5 25.6 110.5 25.6 104.7 24.1 104.7 24.1 103.7"/>
  <polygon class="st0" points="29.3 110.5 29.3 103.7 33.1 103.7 33.1 104.7 30.6 104.7 30.6 106.4 32.9 106.4 32.9 107.4 30.6 107.4 30.6 109.5 33.1 109.5 33.1 110.5 29.3 110.5"/>
  <path class="st0" d="M37.3,103.7h1.3v6.9h-1.4l-1-2.4c-.4-.8-.6-1.6-1-2.7h0c0,.6.1,1.3.1,2,0,.7,0,1.4,0,1.9v1.3h-1.3v-6.9h1.4l1,2.5c.3.8.6,1.6,1,2.7h0c0-.6,0-1.3-.1-1.9,0-.7,0-1.3,0-1.9,0,0,0-1.3,0-1.3Z"/>
  <polygon class="st0" points="39.4 103.7 43.9 103.7 43.9 104.7 42.3 104.7 42.3 110.5 41 110.5 41 104.7 39.4 104.7 39.4 103.7"/>
  <path class="st0" d="M48.4,107.6v3h-1.3v-6.9h2.5c1.2,0,2,.4,2,1.6s-.2,1.5-1.1,1.7h0c.8.1,1,.6,1,1.3s0,2,.3,2.2h0c0,.1-1.5.1-1.5.1-.2-.4-.1-1.3-.1-1.7,0-.4,0-1-.5-1.1-.4-.1-.7-.1-1.1-.1h-.2ZM48.4,106.6h1c.4,0,.8-.3.8-1s-.3-.9-.8-.9h-1s0,1.9,0,1.9Z"/>
  <path class="st0" d="M52.3,110.5l1.7-6.9h1.8l1.6,6.9h-1.4l-.4-1.7h-1.6l-.4,1.7h-1.4ZM54.3,107.8h1.1l-.4-2c0-.3,0-.6-.1-.9,0-.2,0-.3,0-.5h0c0,.1,0,.3,0,.5,0,.3,0,.6-.1.9l-.4,2Z"/>
  <polygon class="st0" points="57.7 103.7 62.2 103.7 62.2 104.7 60.6 104.7 60.6 110.5 59.3 110.5 59.3 104.7 57.7 104.7 57.7 103.7"/>
  <polygon class="st0" points="62.9 110.5 62.9 103.7 66.7 103.7 66.7 104.7 64.3 104.7 64.3 106.4 66.5 106.4 66.5 107.4 64.3 107.4 64.3 109.5 66.7 109.5 66.7 110.5 62.9 110.5"/>
  <path class="st0" d="M67.8,110.5v-6.9h2.8c.3,0,1,.1,1.4.8.3.5.4,1.2.4,2.4s0,2.9-1.1,3.6c-.3.2-.7.2-1,.2h-2.5ZM69.7,109.5c1.2,0,1.3-.6,1.3-2.6s-.2-2.3-1-2.3h-.9v4.9h.6Z"/>
  <path class="st0" d="M75.9,110.5v-6.9h2.1c.6,0,1.1,0,1.5.5.3.4.4.8.4,1.2s-.1,1.2-.9,1.4h0c.7.1,1,.7,1,1.6s0,.6-.1.8c-.3.9-.8,1.2-1.7,1.2h-2.4ZM77.5,109.5c.3,0,.6,0,.8,0,.4-.2.4-.6.4-1,0-.7-.1-1.1-1-1.1h-.5v2.1h.3ZM77.5,106.4c.3,0,.7,0,1-.2.1-.2.1-.4.1-.7,0-.5-.1-.8-.7-.8h-.6v1.8h.2Z"/>
  <path class="st0" d="M82.9,105.5c.1.3.3.7.3,1.1h0c.1-.5.3-.9.4-1.3l.6-1.6h1.5l-1.9,3.9v2.9h-1.3v-2.9l-1.9-3.9h1.5l.8,1.8Z"/>
  <polygon class="st0" points="7.7 122.7 7.7 112.6 22.2 112.6 22.2 114.9 13.5 114.9 13.5 116.4 20.8 116.4 20.8 118.8 13.5 118.8 13.5 120.3 22.5 120.3 22.5 122.7 7.7 122.7"/>
  <path class="st0" d="M37,115.5c0-.3-.4-.6-.8-.7-.4-.1-.9-.2-1.5-.2-1.3,0-1.8.2-1.8.6,0,1.5,10.2.6,10.2,4.3s-3.4,3.5-8.3,3.5-7.7-1.6-7.8-3.4h5.5c.1.4.5.6,1,.8.5.2,1.1.3,1.6.3,1.4,0,2.4-.3,2.4-.7,0-1.5-10.2-.5-10.2-4.4s3.2-3.2,7.7-3.2,7.1,1.4,7.6,3.2h-5.5Z"/>
  <path class="st0" d="M53.5,119.2v3.5h-5.8v-10.2h8.3c5.9,0,7.8.9,7.8,2.9s-.9,2.1-3,2.5c1.9.4,3,.6,3,2.7s0,1.8.6,1.8v.3h-5.9c-.1-.2-.3-.9-.3-1.8,0-1.3-.4-1.8-3.1-1.8h-1.8ZM53.5,117h2.3c1.8,0,2.8-.3,2.8-1s-1-1.1-2.3-1.1h-2.7v2Z"/>
  <path class="st0" d="M69.5,122.7v-10.1h8.4c4,0,7.1.5,7.1,2.6s-1.2,1.8-2.3,2.2c1.9.3,2.9,1.2,2.9,2.3,0,2.3-3,3.1-7.6,3.1h-8.6ZM75.3,118.5v1.9h2.5c1.4,0,2.5-.2,2.5-.9s-1.3-.9-3.2-.9h-1.8ZM75.3,114.9v1.7h2.4c1.2,0,2-.3,2-.9s-1.1-.8-2.4-.8h-2Z"/>
  <path d="M10.2,30.6c0-2.2,2-4.1,4.5-4.1s4.4,1.8,4.4,4.1-2,4.1-4.4,4.1c-2.5,0-4.5-1.8-4.5-4.1M18.3,30.6c0-1.8-1.6-3.3-3.6-3.3s-3.7,1.5-3.7,3.3,1.7,3.4,3.7,3.4c2,0,3.6-1.5,3.6-3.4M13.7,30.9v2.1h-.8v-4.8h1.7c1,0,1.9.2,1.9,1.3s-.4,1-1,1.1h0c.7.2.8.5.9,1,0,.5.1.9.3,1.4h-1c0-.3-.1-.6-.2-.9,0-.4,0-.8-.3-1-.2-.2-.5-.2-.8-.2h-.7M14.6,30.1c.8,0,.9-.3.9-.7s-.2-.6-.8-.6h-1v1.2h.9Z"/>
  <path class="st0" d="M77.1,6.5c-1.4,0-2.6.6-2.6,2.3v8.5c0,1.7,1.2,2.3,2.6,2.3s2.6-.6,2.6-2.3v-8.5c0-1.7-1.2-2.3-2.6-2.3M77.5,16.9c0,.4,0,.8-.4.8s-.4-.5-.4-.8v-7.7c0-.3,0-.8.4-.8s.4.5.4.8v7.7Z"/>
  <path class="st0" d="M70.9,6.5c-1.4,0-2.6.6-2.6,2.3v8.5c0,1.7,1.2,2.3,2.6,2.3s2.6-.6,2.6-2.3v-8.5c0-1.7-1.2-2.3-2.6-2.3M71.2,16.9c0,.4,0,.8-.4.8s-.4-.5-.4-.8v-7.7c0-.3,0-.8.4-.8s.4.5.4.8v7.7Z"/>
  <polygon class="st0" points="65.1 11.3 64.4 11.3 64.4 6.7 62.2 6.7 62.2 19.4 64.4 19.4 64.4 13.3 65.1 13.3 65.1 19.4 67.3 19.4 67.3 6.7 65.1 6.7 65.1 11.3"/>
  <path class="st0" d="M58.7,6.7h-2.6v12.6h2.6c1.3,0,2.6-.6,2.6-2.3v-8c0-1.7-1.2-2.3-2.6-2.3M59.1,16.7c0,.4,0,.8-.4.8h-.4v-9h.4c.3,0,.4.5.4.8v7.3Z"/>
  <polygon class="st0" points="53.6 6.7 51.4 6.7 51.4 19.4 55.5 19.4 55.5 17.6 53.6 17.6 53.6 6.7"/>
  <rect class="st0" x="47.9" y="6.7" width="2.2" height="12.6"/>
  <polygon class="st0" points="44.8 11.3 44 11.3 44 6.7 41.8 6.7 41.8 19.4 44 19.4 44 13.3 44.8 13.3 44.8 19.4 46.9 19.4 46.9 6.7 44.8 6.7 44.8 11.3"/>
  <path class="st0" d="M38.1,6.5c-1.4,0-2.6.6-2.6,2.3v8.5c0,1.7,1.2,2.3,2.6,2.3s2.6-.6,2.6-2.3v-2.9h-2.2v2.5c0,.4,0,.8-.4.8s-.4-.5-.4-.8v-7.7c0-.3,0-.8.4-.8s.4.5.4.8v2h2.2v-2.4c0-1.7-1.2-2.3-2.6-2.3"/>
  <polygon class="st0" points="31.3 11.8 31.3 11.8 30.6 6.7 28.3 6.7 30.1 13 30.1 19.4 32.3 19.4 32.3 13 34 6.7 32 6.7 31.3 11.8"/>
  <polygon class="st0" points="26.8 6.7 24.6 6.7 24.6 19.4 28.8 19.4 28.8 17.6 26.8 17.6 26.8 6.7"/>
  <path class="st0" d="M23.6,14.6c0-1.4-.3-2-1.7-2.1h0c1.3-.1,1.7-1.1,1.7-2.1v-1.1c0-1.9-1.2-2.6-2.6-2.6h-2.6v12.6h2.2v-5.9c.8,0,.8.6.8,1.4v2.9c0,.9.1,1.3.3,1.6h2.2c-.1-.5-.3-1-.3-2.2v-2.5h0ZM21.4,11.2c0,.6-.2.8-.5.8h-.3v-3.5h.3c.4,0,.5.2.5.8v1.8Z"/>
  <path class="st0" d="M13.5,6.7l-1.6,12.6h2l.3-3.4h1l.2,3.4h2.3l-1.3-12.6s-2.9,0-2.9,0ZM14.3,14.1l.4-5.2h0l.3,5.2h-.7Z"/>
  <polygon class="st0" points="7.2 19.4 11.3 19.4 11.3 17.6 9.4 17.6 9.4 13.2 11.2 13.2 11.2 11.4 9.4 11.4 9.4 8.6 11.3 8.6 11.3 6.7 7.2 6.7 7.2 19.4"/>
  <path class="st0" d="M83.4,6.7h-2.6v12.6h2.6c1.3,0,2.6-.6,2.6-2.3v-8c0-1.7-1.2-2.3-2.6-2.3M83.7,16.7c0,.4,0,.8-.4.8h-.4v-9h.4c.3,0,.4.5.4.8v7.3Z"/>
  <path d="M21.2,65.8c.2,1.5.5,3.1,1,4.6.4,1.3.9,2.6,1.4,3.8l6.9-1.7c-1.2-4.5-4.3-7.6-9.3-6.7"/>
  <path d="M82.8,61.8l-18.5,4.5c.7,5.1-1.1,9.5-7.3,11-9.8,2.4-13.5-3.9-15.6-11-2.9-9.8-.3-15.8,6.5-17.5,6-1.5,10.7.6,12.9,5.8l18.2-4.5c-5.4-12.7-17.7-18-35.5-13.6-13.3,3.3-22.3,12.8-22.6,25.1,8.2-1.3,13.5,3,15.7,10.5l.8,2.7-12.1,3c1.7,3,3.9,5.5,6.5,7.5.7-1.2.9-2.6.7-4.6l5.9-1.4c.5,3.5-.4,6.4-2.4,8.7,6.8,3.5,15.4,4.2,25.2,1.8,15.5-3.8,23.9-14.3,21.8-27.9"/>
  <path d="M27,88.2c-5.7,1.4-9.4-3.2-10.4-8.3l8.7-2.1c-.7-1.1-1.3-2.3-1.8-3.6l-8,2c-1.4-4.6.3-9.1,4.9-10.2.3,0,.5-.1.8-.1-.2-1.4-.3-2.8-.3-4.1-.4,0-.8.1-1.2.2-9.4,2.3-11.7,10.3-9.2,18.6,2.5,8.4,8.1,13.9,17.6,11.6,3.3-.8,6-2.3,7.8-4.2-1.5-.7-2.8-1.6-4.1-2.6-.8,1.4-2.4,2.4-4.8,2.9"/>
</svg>