<?xml version="1.0" encoding="UTF-8"?>
<svg id="Layer_1" xmlns="http://www.w3.org/2000/svg" version="1.1" viewBox="0 0 93.1 130.3">
  <!-- Generator: Adobe Illustrator 30.3.0, SVG Export Plug-In . SVG Version: 2.1.3 Build 182)  -->
  <defs>
    <style>
      .st0 {
        fill: #fff;
      }
    </style>
  </defs>
  <polygon class="st0" points="91.4 .7 .9 .7 .9 129.3 92.1 129.3 92.1 .7 91.4 .7"/>
  <rect x="3.3" y="3.2" width="86.4" height="123.7"/>
  <rect class="st0" x="7.9" y="23.5" width="77.2" height="76.8"/>
  <path d="M92.4-.2H0v130.4h93.1V-.2h-.7ZM91.7,128.9H1.3V1.1h90.4v127.8h0Z"/>
  <path class="st0" d="M11.8,107.9v.4c0,1.3-.5,2.2-2,2.2-2.2,0-2.3-1.3-2.3-3.2v-1c0-1.8.2-3,2.3-3s1.9.6,1.9,1.8v.5h-1.3c0-.4,0-1.3-.7-1.3-1.1,0-1,1.2-1,1.7v1.9c0,.6,0,1.5,1,1.5s.7-1.1.7-1.6h1.4Z"/>
  <path class="st0" d="M12.8,106.4c0-1.8.2-3,2.3-3s2.3,1.3,2.3,3v1c0,1.8-.1,3.2-2.3,3.2s-2.3-1.3-2.3-3.2v-1ZM14.2,108c0,.6,0,1.5,1,1.5s1-.9,1-1.6v-1.8c0-.5,0-1.8-1-1.8s-1,1.2-1,1.7v1.9h0Z"/>
  <path class="st0" d="M21.9,103.5h1.3v6.9h-1.4l-1-2.4c-.3-.8-.6-1.6-.9-2.7h0c0,.6.1,1.3.1,2v3.2h-1.3v-6.9h1.4l1,2.5c.3.8.6,1.6,1,2.7h0c0-.6,0-1.3-.1-2s0-1.3,0-1.9v-1.3h-.1Z"/>
  <polygon class="st0" points="24.1 103.5 28.5 103.5 28.5 104.5 26.9 104.5 26.9 110.4 25.6 110.4 25.6 104.5 24.1 104.5 24.1 103.5"/>
  <polygon class="st0" points="29.3 110.4 29.3 103.5 33 103.5 33 104.5 30.6 104.5 30.6 106.2 32.8 106.2 32.8 107.2 30.6 107.2 30.6 109.4 33 109.4 33 110.4 29.3 110.4"/>
  <path class="st0" d="M37.3,103.5h1.3v6.9h-1.4l-1-2.4c-.4-.8-.6-1.6-1-2.7h0c0,.6,0,1.3,0,2v3.2h-1.3v-6.9h1.4l1,2.5c.3.8.6,1.6,1,2.7h0c0-.6,0-1.3,0-2v-3.2h0Z"/>
  <polygon class="st0" points="39.4 103.5 43.9 103.5 43.9 104.5 42.3 104.5 42.3 110.4 41 110.4 41 104.5 39.4 104.5 39.4 103.5"/>
  <path class="st0" d="M48.4,107.4v3h-1.3v-6.9h2.5c1.2,0,2,.4,2,1.6s-.2,1.5-1.1,1.7h0c.8,0,1,.6,1,1.3s0,2,.3,2.2h0c0,0-1.5,0-1.5,0-.2-.4,0-1.3,0-1.7s0-1-.5-1.1c-.4,0-.7,0-1.1,0h-.2v-.2ZM48.4,106.4h1c.4,0,.8-.3.8-1s-.3-.9-.8-.9h-1v1.9Z"/>
  <path class="st0" d="M52.3,110.4l1.7-6.9h1.8l1.6,6.9h-1.4l-.4-1.7h-1.6l-.4,1.7h-1.4.1ZM54.3,107.6h1.1l-.4-2c0-.3,0-.6,0-.9v-.5h0v.5c0,.3,0,.6,0,.9l-.4,2h0Z"/>
  <polygon class="st0" points="57.7 103.5 62.1 103.5 62.1 104.5 60.6 104.5 60.6 110.4 59.2 110.4 59.2 104.5 57.7 104.5 57.7 103.5"/>
  <polygon class="st0" points="62.9 110.4 62.9 103.5 66.6 103.5 66.6 104.5 64.2 104.5 64.2 106.2 66.4 106.2 66.4 107.2 64.2 107.2 64.2 109.4 66.6 109.4 66.6 110.4 62.9 110.4"/>
  <path class="st0" d="M67.7,110.4v-6.9h2.8c.3,0,1,0,1.4.8.3.5.4,1.2.4,2.4s0,2.9-1.1,3.6c-.3.2-.7.2-1,.2h-2.5ZM69.6,109.4c1.2,0,1.3-.6,1.3-2.6s-.2-2.3-1-2.3h-.9v4.9h.6Z"/>
  <path class="st0" d="M75.9,110.4v-6.9h2.1c.6,0,1.1,0,1.5.5.3.4.4.8.4,1.2s0,1.2-.9,1.4h0c.7,0,1,.7,1,1.6s0,.6,0,.8c-.3.9-.8,1.2-1.7,1.2h-2.4v.2ZM77.5,109.4h.8c.4-.2.4-.6.4-1,0-.7-.2-1.1-1-1.1h-.5v2.1s.3,0,.3,0ZM77.4,106.3c.3,0,.7,0,1-.2,0-.2,0-.4,0-.7,0-.5,0-.8-.7-.8h-.6v1.8h.2Z"/>
  <path class="st0" d="M82.9,105.3c0,.3.3.7.3,1.1h0c0-.5.3-.9.4-1.3l.6-1.6h1.5l-1.9,3.9v2.9h-1.3v-2.9l-1.9-3.9h1.5l.8,1.8Z"/>
  <polygon class="st0" points="7.7 122.5 7.7 112.4 22.1 112.4 22.1 114.8 13.5 114.8 13.5 116.2 20.8 116.2 20.8 118.6 13.5 118.6 13.5 120.2 22.5 120.2 22.5 122.5 7.7 122.5"/>
  <path class="st0" d="M36.9,115.3c0-.3-.4-.6-.8-.7-.4,0-.9-.2-1.5-.2-1.3,0-1.8.2-1.8.6,0,1.5,10.2.6,10.2,4.3s-3.4,3.5-8.3,3.5-7.7-1.6-7.8-3.4h5.5c0,.4.5.6,1,.8.5.2,1.1.3,1.6.3,1.4,0,2.4-.3,2.4-.7,0-1.5-10.2-.5-10.2-4.4s3.2-3.2,7.7-3.2,7.1,1.4,7.6,3.2h-5.6Z"/>
  <path class="st0" d="M53.5,119v3.5h-5.8v-10.1h8.3c5.9,0,7.8.9,7.8,2.9s-.9,2.1-3,2.5c1.9.4,3,.6,3,2.7s0,1.8.6,1.8v.3h-5.9c0-.2-.3-.9-.3-1.8,0-1.3-.4-1.8-3.1-1.8h-1.8.2ZM53.5,116.8h2.3c1.8,0,2.8-.3,2.8-1s-1-1.1-2.3-1.1h-2.7v2h0Z"/>
  <path class="st0" d="M69.5,122.5v-10.1h8.4c4,0,7.1.5,7.1,2.6s-1.2,1.8-2.3,2.2c1.9.3,2.9,1.2,2.9,2.3,0,2.3-3,3.1-7.6,3.1h-8.6,0ZM75.3,118.3v1.9h2.5c1.4,0,2.5-.2,2.5-.9s-1.3-.9-3.2-.9h-1.8ZM75.3,114.8v1.7h2.4c1.1,0,2-.3,2-.9s-1.1-.8-2.4-.8c0,0-2,0-2,0Z"/>
  <path d="M10.2,30.4c0-2.2,2-4.1,4.5-4.1s4.4,1.8,4.4,4.1-2,4.1-4.4,4.1-4.5-1.8-4.5-4.1M18.3,30.4c0-1.8-1.6-3.3-3.6-3.3s-3.7,1.5-3.7,3.3,1.6,3.4,3.7,3.4,3.6-1.5,3.6-3.4M13.7,30.7v2.1h-.8v-4.8h1.7c1,0,1.9.2,1.9,1.3s-.4,1-1,1.1h0c.7.1.8.5.9,1,0,.5.1.9.3,1.4h-1c0-.3-.1-.6-.2-.9,0-.4,0-.8-.3-1-.2-.2-.5-.2-.8-.2h-.7M14.5,29.9c.8,0,.9-.3.9-.7s-.2-.6-.8-.6h-1v1.2h.9Z"/>
  <polygon class="st0" points="81.7 17.4 81.7 14.7 85.6 14.7 85.6 12.2 81.7 12.2 81.7 9.9 85.8 9.9 85.8 7.4 78.6 7.4 78.6 19.9 85.8 19.9 85.8 17.4 81.7 17.4"/>
  <polygon class="st0" points="73.6 14.4 73.5 14.4 71.1 7.4 67.9 7.4 67.9 19.9 70.9 19.9 70.6 13 70.6 12.9 73.1 19.9 76.3 19.9 76.3 7.4 73.3 7.4 73.6 14.4"/>
  <path class="st0" d="M61.8,7.2c-2.8,0-4.3,1.3-4.3,3.7v5.1c0,2.8,1.1,4.3,4.3,4.3s4.2-1.5,4.2-4.3v-5.1c0-2.4-1.5-3.7-4.2-3.7M62.9,16.3c0,.7,0,1.8-1.1,1.8s-1.1-1.1-1.1-1.8v-5.1c0-.8,0-1.7,1.1-1.7s1.1.9,1.1,1.7v5.1h0Z"/>
  <polygon class="st0" points="51.4 11.5 51.4 11.5 49.8 7.4 46.6 7.4 49.8 14.7 49.8 19.9 52.9 19.9 52.9 14.7 56.1 7.4 53 7.4 51.4 11.5"/>
  <path class="st0" d="M45.5,15.4c0-.9-.7-1.4-1.5-1.6h0c1.3-.6,1.7-1.6,1.7-2.9,0-2.5-1.3-3.5-3.9-3.5h-4.6v12.5h3.1v-4.9h1c.7,0,1,.6,1.1,1.3v2.9c0,.2,0,.5.2.7h3.4v-.2c-.2-.1-.2-.3-.3-.4-.2-.8-.2-3-.3-3.9M41.3,12.7h-1.1v-3.1c1.5,0,2.2,0,2.2,1.5s-.2,1.6-1.1,1.6"/>
  <polygon class="st0" points="31 14.7 35 14.7 35 12.2 31 12.2 31 9.9 35.1 9.9 35.1 7.4 27.9 7.4 27.9 19.9 35.3 19.9 35.3 17.4 31 17.4 31 14.7"/>
  <polygon class="st0" points="21.6 16.2 21.5 16.2 19.9 7.4 16.8 7.4 19.7 19.9 23.4 19.9 26.3 7.4 23.2 7.4 21.6 16.2"/>
  <polygon class="st0" points="11.2 14.7 15.2 14.7 15.2 12.2 11.2 12.2 11.2 9.9 15.3 9.9 15.3 7.4 8.1 7.4 8.1 19.9 15.6 19.9 15.6 17.4 11.2 17.4 11.2 14.7"/>
  <polygon points="16.7 38.4 64.4 26.3 68.8 41.7 40.6 48.9 42.4 55.2 70.5 48.1 74.9 63.5 46.8 70.6 48.7 77.3 76.8 70.2 81.2 85.6 33.5 97.7 16.7 38.4"/>
</svg>