<?xml version="1.0" encoding="UTF-8"?>
<svg id="Layer_1" xmlns="http://www.w3.org/2000/svg" version="1.1" viewBox="0 0 93.1 130.3">
  <!-- Generator: Adobe Illustrator 30.3.0, SVG Export Plug-In . SVG Version: 2.1.3 Build 182)  -->
  <defs>
    <style>
      .st0 {
        fill: #fff;
      }
    </style>
  </defs>
  <polygon class="st0" points="91.3 1.1 1.2 1.1 1.2 129.2 92 129.2 92 1.1 91.3 1.1"/>
  <path d="M92.3.2H.2v129.9h92.7V.2h-.7ZM91.6,128.9H1.5V1.5h90.1v127.4Z"/>
  <rect class="st0" x="2.5" y="2.7" width="88" height="125"/>
  <rect x="2.8" y="3" width="87.2" height="124.4"/>
  <rect class="st0" x="7.4" y="23.4" width="78.3" height="79"/>
  <path class="st0" d="M11.6,109.1v.4c0,1.2-.5,2.2-2,2.2-2.2,0-2.4-1.3-2.4-3.1v-1c0-1.7.2-3,2.4-3,1.2,0,1.9.6,2,1.7,0,.2,0,.3,0,.5h-1.3c0-.4,0-1.2-.7-1.2-1.1,0-1,1.2-1,1.7v1.9c0,.6,0,1.5,1,1.5s.6-1.1.7-1.5h1.4Z"/>
  <path class="st0" d="M12.6,107.6c0-1.7.2-3,2.4-3s2.3,1.3,2.4,3v1c0,1.8-.1,3.1-2.4,3.1s-2.4-1.3-2.4-3.1v-1ZM14,109.2c0,.6,0,1.5,1,1.5s1-.9,1-1.6v-1.7c0-.5,0-1.7-1-1.7s-1,1.2-1,1.7v1.9Z"/>
  <path class="st0" d="M21.8,104.8h1.3v6.7h-1.4l-1-2.4c-.4-.8-.6-1.6-1-2.7h0c0,.6.1,1.2.1,1.9,0,.7,0,1.3,0,1.9v1.3h-1.3v-6.7h1.4l1,2.5c.3.8.6,1.6,1,2.7h0c0-.6,0-1.3-.1-1.9,0-.6,0-1.3,0-1.9v-1.3h0Z"/>
  <polygon class="st0" points="24 104.8 28.4 104.8 28.4 105.7 26.9 105.7 26.9 111.5 25.5 111.5 25.5 105.7 24 105.7 24 104.8"/>
  <polygon class="st0" points="29.2 111.5 29.2 104.8 33 104.8 33 105.7 30.6 105.7 30.6 107.4 32.8 107.4 32.8 108.4 30.6 108.4 30.6 110.5 33 110.5 33 111.5 29.2 111.5"/>
  <path class="st0" d="M37.3,104.8h1.3v6.7h-1.4l-1.1-2.4c-.4-.8-.6-1.6-1-2.7h0c0,.6.1,1.2.2,1.9,0,.7,0,1.3,0,1.9v1.3h-1.3v-6.7h1.4l1,2.5c.4.8.6,1.6,1,2.7h0c0-.6,0-1.3-.1-1.9,0-.6,0-1.3,0-1.9v-1.3h0Z"/>
  <polygon class="st0" points="39.5 104.8 43.9 104.8 43.9 105.7 42.4 105.7 42.4 111.5 41 111.5 41 105.7 39.5 105.7 39.5 104.8"/>
  <path class="st0" d="M48.5,108.6v2.9h-1.4v-6.7h2.6c1.2,0,2,.4,2,1.6s-.2,1.5-1.1,1.6h0c.8.1,1,.6,1,1.2s0,1.9.3,2.1h0c0,.1-1.5.1-1.5.1-.2-.4-.1-1.3-.1-1.7,0-.4,0-1-.5-1.1-.4-.1-.8,0-1.1,0h-.2ZM48.5,107.6h1.1c.4,0,.8-.3.8-1s-.3-.9-.8-.9h-1v1.9Z"/>
  <path class="st0" d="M52.5,111.5l1.7-6.7h1.8l1.6,6.7h-1.4l-.4-1.7h-1.6l-.4,1.7h-1.4ZM54.5,108.8h1.2l-.4-1.9c0-.3,0-.6-.1-.9v-.5h0v.5c0,.3-.1.6-.2.9l-.4,1.9Z"/>
  <polygon class="st0" points="57.9 104.8 62.4 104.8 62.4 105.7 60.8 105.7 60.8 111.5 59.5 111.5 59.5 105.7 57.9 105.7 57.9 104.8"/>
  <polygon class="st0" points="63.2 111.5 63.2 104.8 67 104.8 67 105.7 64.5 105.7 64.5 107.4 66.8 107.4 66.8 108.4 64.5 108.4 64.5 110.5 67 110.5 67 111.5 63.2 111.5"/>
  <path class="st0" d="M68.1,111.5v-6.7h2.8c.3,0,1,.1,1.4.8.3.5.4,1.2.4,2.3s0,2.9-1.1,3.5c-.3.2-.7.2-1,.2h-2.5ZM70,110.5c1.2,0,1.3-.6,1.3-2.5s-.2-2.2-1-2.2h-.9v4.8h.6Z"/>
  <path class="st0" d="M76.3,111.5v-6.7h2.2c.6,0,1.1,0,1.5.5.3.4.4.7.4,1.2s-.1,1.2-.9,1.4h0c.8.1,1.1.7,1.1,1.6s0,.6-.1.8c-.3.8-.8,1.2-1.8,1.2h-2.4ZM77.9,110.5c.3,0,.6,0,.8,0,.4-.2.4-.6.4-.9,0-.7-.2-1-1-1h-.5v2h.3ZM77.9,107.5c.3,0,.8,0,1-.2.1-.2.1-.4.1-.7,0-.5-.1-.8-.7-.8h-.6v1.7h.2Z"/>
  <path class="st0" d="M83.4,106.5c.1.3.3.7.3,1h0c.1-.5.3-.9.4-1.3l.6-1.5h1.5l-1.9,3.9v2.9h-1.3v-2.9l-1.9-3.9h1.5l.8,1.8Z"/>
  <polygon class="st0" points="7.5 123.4 7.5 113.5 22 113.5 22 115.8 13.3 115.8 13.3 117.2 20.7 117.2 20.7 119.5 13.3 119.5 13.3 121.1 22.3 121.1 22.3 123.4 7.5 123.4"/>
  <path class="st0" d="M37,116.4c0-.3-.4-.5-.8-.7-.4-.1-.9-.2-1.5-.2-1.3,0-1.9.2-1.9.6,0,1.5,10.3.6,10.3,4.2s-3.4,3.4-8.3,3.4-7.8-1.5-7.9-3.3h5.6c.1.4.5.6,1,.8.5.2,1.1.2,1.7.2,1.5,0,2.4-.3,2.4-.7,0-1.5-10.2-.5-10.2-4.3s3.3-3.2,7.7-3.2,7.2,1.4,7.6,3.1h-5.5Z"/>
  <path class="st0" d="M53.7,120v3.5h-5.9v-9.9h8.4c6,0,7.9.9,7.9,2.8s-.9,2.1-3,2.4c1.9.4,3,.6,3,2.6s0,1.7.6,1.7v.3h-5.9c-.1-.2-.3-.9-.3-1.7,0-1.3-.4-1.7-3.1-1.7h-1.8ZM53.7,117.8h2.3c1.8,0,2.8-.2,2.8-.9s-1-1-2.4-1h-2.7v2h0Z"/>
  <path class="st0" d="M69.9,123.4v-9.9h8.5c4,0,7.2.5,7.2,2.5s-1.2,1.8-2.3,2.2c1.9.3,3,1.2,3,2.3,0,2.2-3,3-7.7,3h-8.7ZM75.7,119.3v1.8h2.6c1.4,0,2.5-.2,2.5-.9s-1.4-.9-3.2-.9h-1.9ZM75.7,115.8v1.7h2.4c1.2,0,2-.3,2-.9s-1.1-.8-2.4-.8h-2.1Z"/>
  <path d="M8.9,27.9c0-2,1.7-3.6,3.8-3.6s3.7,1.6,3.7,3.6-1.7,3.6-3.7,3.6-3.8-1.6-3.8-3.6M15.7,27.9c0-1.6-1.4-2.9-3.1-2.9s-3.1,1.3-3.1,2.9,1.4,3,3.1,3,3.1-1.3,3.1-3M11.9,28.1v1.8h-.7v-4.2h1.4c.8,0,1.7.2,1.7,1.2s-.3.9-.9,1h0c.6.1.7.4.7.8,0,.4.1.8.3,1.2h-.9c0-.2-.1-.5-.1-.7,0-.4,0-.7-.3-.9-.2-.2-.4-.2-.6-.2h-.6ZM12.6,27.4c.6,0,.8-.3.8-.6s-.2-.5-.7-.5h-.8v1.1h.7Z"/>
  <path class="st0" d="M7.4,20.2V6.8h2.6c1.4,0,2.6.7,2.6,2.7v1.2c0,1-.4,2.1-1.7,2.2h0c1.4.1,1.7.8,1.7,2.3v2.6c0,1.3.2,1.8.3,2.4h-2.3c-.2-.4-.3-.8-.3-1.7v-3c0-.8,0-1.5-.8-1.5v6.2h-2.2ZM9.7,12.4h.3c.4,0,.5-.2.5-.8v-2c0-.6-.2-.8-.5-.8h-.3v3.6Z"/>
  <path class="st0" d="M15.1,6.8h3l1.3,13.3h-2.3l-.3-3.6h-1.1l-.4,3.6h-2l1.7-13.3ZM16.6,14.6l-.3-5.5h0l-.4,5.5h.7Z"/>
  <polygon class="st0" points="23.3 20.2 21.1 20.2 21.1 8.7 19.6 8.7 19.6 6.8 24.8 6.8 24.8 8.7 23.3 8.7 23.3 20.2"/>
  <rect class="st0" x="25.5" y="6.8" width="2.2" height="13.3"/>
  <polygon class="st0" points="29.2 20.2 29.2 6.8 32.3 6.8 33.4 15.5 33.5 15.5 33.5 6.8 35.2 6.8 35.2 20.2 32.6 20.2 31 9.7 31 9.7 31 20.2 29.2 20.2"/>
  <path class="st0" d="M40.2,19.2h0c-.3.8-1.1,1.2-1.7,1.2-1.5,0-2.2-1-2.2-2.4v-9c0-1.8,1.2-2.4,2.6-2.4s2.6.7,2.6,2.4v2.5h-2.2v-2.1c0-.4,0-.9-.4-.9s-.4.5-.4.9v8.1c0,.4,0,.9.4.9s.4-.5.4-.9v-2.3h-.6v-1.9h2.8v6.8h-1.1l-.2-1Z"/>
  <path class="st0" d="M45.6,20.2V6.8h2.6c1.4,0,2.6.7,2.6,2.7v2.7c0,2-1.2,2.7-2.6,2.7h-.4v5.2h-2.2ZM47.8,13h.3c.4,0,.5-.2.5-.8v-2.6c0-.6-.2-.8-.5-.8h-.3v4.3Z"/>
  <polygon class="st0" points="51.8 20.2 51.8 6.8 56 6.8 56 8.7 54 8.7 54 11.8 55.9 11.8 55.9 13.7 54 13.7 54 18.3 56 18.3 56 20.2 51.8 20.2"/>
  <polygon class="st0" points="56.8 20.2 56.8 6.8 59.9 6.8 61 15.5 61 15.5 61 6.8 62.8 6.8 62.8 20.2 60.1 20.2 58.5 9.7 58.5 9.7 58.5 20.2 56.8 20.2"/>
  <path class="st0" d="M63.7,6.8h2.6c1.4,0,2.6.7,2.6,2.4v8.5c0,1.8-1.2,2.4-2.6,2.4h-2.6V6.8ZM66,18.3h.4c.4,0,.4-.5.4-.9v-7.8c0-.4,0-.9-.4-.9h-.4v9.5Z"/>
  <rect class="st0" x="70.1" y="6.8" width="2.2" height="13.3"/>
  <polygon class="st0" points="73.5 20.2 73.5 6.8 76.6 6.8 77.7 15.5 77.8 15.5 77.8 6.8 79.5 6.8 79.5 20.2 76.8 20.2 75.3 9.7 75.2 9.7 75.2 20.2 73.5 20.2"/>
  <path class="st0" d="M84.5,19.2h0c-.3.8-1.1,1.2-1.7,1.2-1.5,0-2.2-1-2.2-2.4v-9c0-1.8,1.2-2.4,2.6-2.4s2.6.7,2.6,2.4v2.5h-2.2v-2.1c0-.4,0-.9-.4-.9s-.4.5-.4.9v8.1c0,.4,0,.9.4.9s.4-.5.4-.9v-2.3h-.6v-1.9h2.8v6.8h-1.1l-.2-1Z"/>
  <path d="M51.5,74c-1.4-4.8-4-7.6-7.9-8.6,2.4-2.6,3.7-6.8,1.9-13.2-2.6-9-9-13.4-16.9-11.4l-17.9,4.6h-.4c0,0,14.8,52.7,14.8,52.7l12-3s-4.9-17.2-5.7-20.3c.2,0,.6-.1.6-.1,1.8-.5,3.2-.5,4.1,0,1.6.9,2.3,3.5,3.2,6.6l.7,2.4c.8,2.9,1.6,5.9,3.7,8.5l.8,1,13.7-3.5-1.8-2.3c-.9-1.1-3.2-7.9-4.8-13.4M25,51.8c1.5-.4,3.1-.8,3.1-.8,1.5-.4,3.9-1,5.7,5.3.3,1.2,1.9,7.4-1.8,8.3,0,0-1.5.4-3,.8-.9-3.2-2.9-10.4-3.8-13.6"/>
  <path d="M62.9,32.1l-16.1,4.1-1.9.5,14.8,52.6,12.2-3.1s-4.8-16.9-5.6-19.9c2.1-.5,5.3-1.3,5.3-1.3,9.6-2.4,13.2-9.5,10.3-20-3.8-13.6-12.4-14.5-18.9-12.8M59.7,42.9c1.8-.5,3.7-.9,3.7-.9,2.1-.5,4.5-.5,6.4,6.2.9,3.2,0,6.7-1.9,7.2,0,0-2.4.6-4.4,1.1-.9-3.1-3-10.5-3.8-13.6"/>
  <polygon points="86.2 3 88.2 3 88.2 6.8 86.2 6.8 86.2 123.7 88.2 123.7 88.2 127.4 90.2 127.4 90.2 124.7 90.2 123.7 90.2 6.8 90.2 3 86.2 3"/>
</svg>