<?xml version="1.0" encoding="UTF-8"?>
<svg id="Layer_1" xmlns="http://www.w3.org/2000/svg" version="1.1" viewBox="0 0 93.1 130.3">
  <!-- Generator: Adobe Illustrator 30.3.0, SVG Export Plug-In . SVG Version: 2.1.3 Build 182)  -->
  <defs>
    <style>
      .st0 {
        fill: #fff;
      }
    </style>
  </defs>
  <polygon class="st0" points="91.6 .7 1.1 .7 1.1 129.3 92.3 129.3 92.3 .7 91.6 .7"/>
  <rect x="3.5" y="3.2" width="86.4" height="123.7"/>
  <rect class="st0" x="8.1" y="23.5" width="77.2" height="76.8"/>
  <path d="M92.6-.2H.2v130.4h93.1V-.2h-.7ZM91.9,128.9H1.5V1.1h90.4v127.8Z"/>
  <path class="st0" d="M12,107.9c0,.1,0,.3,0,.4,0,1.3-.5,2.2-2,2.2-2.2,0-2.3-1.3-2.3-3.2v-1c0-1.8.2-3,2.3-3,1.2,0,1.9.6,1.9,1.8,0,.2,0,.4,0,.5h-1.3c0-.4,0-1.3-.7-1.3-1.1,0-1,1.2-1,1.7v1.9c0,.6,0,1.5,1,1.5s.6-1.1.7-1.6h1.3Z"/>
  <path class="st0" d="M13,106.4c0-1.8.2-3,2.3-3s2.3,1.3,2.3,3v1c0,1.8-.1,3.2-2.3,3.2s-2.3-1.3-2.3-3.2v-1ZM14.4,108c0,.6,0,1.5,1,1.5s1-.9,1-1.6v-1.8c0-.6,0-1.8-1-1.8s-1,1.2-1,1.7v1.9Z"/>
  <path class="st0" d="M22.1,103.5h1.3v6.9h-1.4l-1-2.4c-.3-.8-.6-1.6-.9-2.7h0c0,.6.1,1.3.1,2,0,.7,0,1.4,0,1.9v1.3h-1.3v-6.9h1.4l1,2.5c.3.8.6,1.6,1,2.7h0c0-.6,0-1.3-.1-2,0-.7,0-1.3,0-1.9v-1.3Z"/>
  <polygon class="st0" points="24.3 103.5 28.7 103.5 28.7 104.5 27.1 104.5 27.1 110.4 25.8 110.4 25.8 104.5 24.3 104.5 24.3 103.5"/>
  <polygon class="st0" points="29.5 110.4 29.5 103.5 33.2 103.5 33.2 104.5 30.8 104.5 30.8 106.2 33 106.2 33 107.2 30.8 107.2 30.8 109.4 33.2 109.4 33.2 110.4 29.5 110.4"/>
  <path class="st0" d="M37.5,103.5h1.3v6.9h-1.4l-1-2.4c-.4-.8-.6-1.6-1-2.7h0c0,.6.1,1.3.1,2,0,.7,0,1.4,0,1.9v1.3h-1.3v-6.9h1.4l1,2.5c.3.8.6,1.6,1,2.7h0c0-.6,0-1.3-.1-2,0-.7,0-1.3,0-1.9v-1.3h0Z"/>
  <polygon class="st0" points="39.6 103.5 44.1 103.5 44.1 104.5 42.5 104.5 42.5 110.4 41.2 110.4 41.2 104.5 39.6 104.5 39.6 103.5"/>
  <path class="st0" d="M48.6,107.4v3h-1.3v-6.9h2.5c1.2,0,2,.4,2,1.6s-.2,1.5-1.1,1.7h0c.8.1,1,.6,1,1.3s0,2,.3,2.2h0c0,.1-1.5.1-1.5.1-.2-.4-.1-1.3-.1-1.7,0-.4,0-1-.5-1.1-.4-.1-.7,0-1.1,0h-.2ZM48.6,106.4h1c.4,0,.8-.3.8-1s-.3-.9-.8-.9h-1v1.9Z"/>
  <path class="st0" d="M52.5,110.4l1.7-6.9h1.8l1.6,6.9h-1.4l-.4-1.7h-1.6l-.4,1.7h-1.4ZM54.5,107.6h1.1l-.4-2c0-.3,0-.6-.1-.9,0-.2,0-.3,0-.5h0c0,.1,0,.3,0,.5,0,.3,0,.6-.1.9l-.4,2Z"/>
  <polygon class="st0" points="57.9 103.5 62.3 103.5 62.3 104.5 60.8 104.5 60.8 110.4 59.4 110.4 59.4 104.5 57.9 104.5 57.9 103.5"/>
  <polygon class="st0" points="63.1 110.4 63.1 103.5 66.8 103.5 66.8 104.5 64.4 104.5 64.4 106.2 66.7 106.2 66.7 107.2 64.4 107.2 64.4 109.4 66.8 109.4 66.8 110.4 63.1 110.4"/>
  <path class="st0" d="M67.9,110.4v-6.9h2.8c.3,0,1,.1,1.4.8.3.5.4,1.2.4,2.4s0,2.9-1.1,3.5c-.3.2-.7.2-1,.2h-2.5ZM69.8,109.4c1.2,0,1.3-.6,1.3-2.6s-.2-2.3-1-2.3h-.9v4.8h.6Z"/>
  <path class="st0" d="M76.1,110.4v-6.9h2.1c.6,0,1.1,0,1.5.5.3.4.4.8.4,1.2s-.1,1.2-.9,1.4h0c.7.1,1,.7,1,1.6s0,.6,0,.8c-.3.9-.8,1.2-1.7,1.2h-2.4ZM77.7,109.4c.3,0,.6,0,.8,0,.4-.2.4-.6.4-1,0-.7-.1-1.1-1-1.1h-.5v2.1h.3ZM77.6,106.3c.3,0,.7,0,1-.2.1-.2.1-.4.1-.7,0-.5-.1-.8-.7-.8h-.6v1.8h.2Z"/>
  <path class="st0" d="M83.1,105.3c.1.3.3.7.3,1.1h0c.1-.5.3-.9.4-1.3l.6-1.6h1.5l-1.9,3.9v2.9h-1.3v-2.9l-1.9-3.9h1.5l.8,1.8Z"/>
  <polygon class="st0" points="7.9 122.5 7.9 112.4 22.3 112.4 22.3 114.8 13.7 114.8 13.7 116.2 21 116.2 21 118.6 13.7 118.6 13.7 120.2 22.7 120.2 22.7 122.5 7.9 122.5"/>
  <path class="st0" d="M37.1,115.3c0-.3-.4-.6-.8-.7-.4-.1-.9-.2-1.5-.2-1.3,0-1.8.2-1.8.6,0,1.5,10.2.6,10.2,4.3s-3.4,3.5-8.3,3.5-7.7-1.6-7.8-3.4h5.5c.1.4.5.6,1,.8.5.2,1.1.3,1.6.3,1.4,0,2.4-.3,2.4-.7,0-1.5-10.2-.5-10.2-4.4s3.2-3.2,7.7-3.2,7.1,1.4,7.6,3.2h-5.5Z"/>
  <path class="st0" d="M53.7,119v3.5h-5.8v-10.1h8.3c5.9,0,7.8.9,7.8,2.9s-.9,2.1-3,2.5c1.9.4,3,.6,3,2.7s0,1.8.6,1.8v.3h-5.9c-.1-.2-.3-.9-.3-1.8,0-1.3-.4-1.8-3.1-1.8h-1.8ZM53.7,116.8h2.3c1.8,0,2.8-.3,2.8-1s-1-1.1-2.3-1.1h-2.7v2h0Z"/>
  <path class="st0" d="M69.7,122.5v-10.1h8.4c4,0,7.1.5,7.1,2.6s-1.2,1.8-2.3,2.2c1.9.3,2.9,1.2,2.9,2.3,0,2.3-3,3.1-7.6,3.1h-8.6ZM75.5,118.3v1.9h2.5c1.4,0,2.5-.2,2.5-.9s-1.3-.9-3.2-.9h-1.8ZM75.5,114.8v1.7h2.4c1.1,0,2-.3,2-.9s-1.1-.8-2.4-.8h-2Z"/>
  <path d="M10.4,30.4c0-2.2,2-4.1,4.5-4.1s4.4,1.8,4.4,4.1-2,4.1-4.4,4.1c-2.5,0-4.5-1.8-4.5-4.1M18.5,30.4c0-1.8-1.6-3.3-3.6-3.3s-3.7,1.5-3.7,3.3,1.6,3.4,3.7,3.4c2,0,3.6-1.5,3.6-3.4M13.9,30.7v2.1h-.8v-4.8h1.7c1,0,1.9.2,1.9,1.3s-.4,1-1,1.1h0c.7.1.8.4.9,1,0,.4.1.9.3,1.4h-1c0-.3-.1-.6-.2-.9,0-.4,0-.8-.3-1-.2-.2-.5-.2-.8-.2h-.7M14.7,29.9c.8,0,.9-.3.9-.7s-.2-.5-.8-.5h-1v1.2h.9Z"/>
  <path class="st0" d="M78.8,13.4h0c.9-.3,1.2-.9,1.2-2.3v-1.1c0-1.8-.5-2.7-2.3-2.7s-2.3.9-2.3,2.7v1.1c0,1.5.3,2.1,1.2,2.3h0c-.9.3-1.3.7-1.3,2.4v1c0,2.2.5,3.1,2.4,3.1s2.4-.8,2.4-3.1v-1c0-1.8-.4-2.1-1.3-2.4M76.9,9.9c0-.7,0-1.4.8-1.4s.8.7.8,1.4v1.6c0,.6,0,1.2-.8,1.2s-.8-.6-.8-1.7v-1ZM78.6,17.1c0,.8,0,1.6-.9,1.6s-.9-.8-.9-1.6v-1.5c0-.8,0-1.5.9-1.5s.9.8.9,1.5v1.5Z"/>
  <path class="st0" d="M70.6,9.3v1.6c.6-.5.9-.8,1.2-1.3h0v10.1h1.5V7.3h-1.3c-.2.6-1.1,1.7-1.4,2"/>
  <polygon class="st0" points="65.1 12.6 65 12.6 63.6 7.3 62.1 7.3 64.3 14.7 64.3 19.8 65.8 19.8 65.8 14.7 68 7.3 66.6 7.3 65.1 12.6"/>
  <polygon class="st0" points="60.8 7.3 59.2 7.3 59.2 19.8 63.4 19.8 63.4 18.3 60.8 18.3 60.8 7.3"/>
  <polygon class="st0" points="56.5 17.7 56.5 17.7 54.6 7.3 52.4 7.3 52.4 19.8 53.8 19.8 53.8 9.1 53.8 9.1 55.7 19.8 58 19.8 58 7.3 56.5 7.3 56.5 17.7"/>
  <path class="st0" d="M48.6,7.2c-2.2,0-2.7,1.5-2.7,3.3v6.3c0,1.9.7,3.1,2.7,3.1s2.7-1.5,2.7-3.3v-6.3c0-1.9-.7-3.1-2.7-3.1M49.7,16.9c0,1.1-.4,1.6-1.1,1.6s-1.1-.6-1.1-1.6v-6.5c0-1.2.4-1.8,1.1-1.8s1.1.6,1.1,1.8v6.5Z"/>
  <path class="st0" d="M38.5,9.9c0-1,.3-1.4,1-1.4s.9.4.9,1.1v1h1.5v-1.2c0-.9-.2-1.3-.5-1.6-.4-.4-1-.7-1.9-.7-1.7,0-2.6.9-2.6,2.9s.8,2.7,1.9,3.8c1.7,1.8,1.7,2.1,1.7,3.2s-.2,1.4-1,1.4-.9-.5-.9-1.4v-1h-1.6v1.5c0,1.6,1,2.2,2.5,2.2s2.6-1.1,2.6-3.1-.3-2.1-1.8-3.9c-1.5-1.7-1.6-2.2-1.6-3"/>
  <polygon class="st0" points="31 8.8 33 8.8 33 19.8 34.5 19.8 34.5 8.8 36.4 8.8 36.4 7.3 31 7.3 31 8.8"/>
  <polygon class="st0" points="29.7 7.3 28.1 7.3 28.1 19.8 32.4 19.8 32.4 18.3 29.7 18.3 29.7 7.3"/>
  <path class="st0" d="M25.4,17.2c0,.9-.3,1.3-1.1,1.3s-1.1-.4-1.1-1.3V7.3h-1.6v9.7c0,1.4.5,2.9,2.7,2.9s2.7-1.5,2.7-2.9V7.3h-1.6v9.9Z"/>
  <path class="st0" d="M17.8,7.3h-2.6v12.5h2.3c2.5,0,3-1,3-4.2v-3.7c0-3.6-.2-4.6-2.8-4.6M18.9,15.5c0,2.1-.2,2.8-1.4,2.8h-.8v-9.6h.6c1.3,0,1.5.6,1.5,2.5v4.3Z"/>
  <path class="st0" d="M10.3,7.3l-2.5,12.5h1.6l.5-3.2h2.5l.5,3.2h1.6l-2.3-12.5h-1.8ZM10.1,15.2l1-6h0l1,6h-2Z"/>
  <polygon class="st0" points="84.1 12.6 84.1 10 83.1 10 83.1 12.6 80.7 12.6 80.7 13.6 83.1 13.6 83.1 16.3 84.1 16.3 84.1 13.6 86.5 13.6 86.5 12.6 84.1 12.6"/>
  <path d="M69.9,62.6c-.9.5-2,.8-3.2,1.1-8.2,2-14-2.4-16.3-10.1-1.7-5.7-.7-10.6,3.2-13.7l-9.5-13.2-20.7,5.1-4.2,67,19.9-4.9v-8.7c0,0,20.2-5,20.2-5l4.8,7.5,20.3-5-14.6-20.3M39.3,71.6l-.2-23.6,13,20.5-12.8,3.1Z"/>
  <path d="M55.4,52.5c1.6,5.3,4.7,9.3,10.3,7.9.8-.2,1.4-.5,2-.8l-11.7-16.3c-1.8,2.2-1.7,5.6-.6,9.2"/>
  <path d="M60,40.9c5.6-1.4,8.8,2.6,10.3,7.9,1.3,4.6,1.1,8.8-2.6,10.8l2.2,3c5.7-2.8,7.3-8.4,5.4-15-2.3-7.7-8.1-12.1-16.3-10.1-2.2.5-3.9,1.4-5.3,2.5l2.4,3.3c.9-1.1,2.1-1.9,4-2.4"/>
</svg>